{
    "asset" : {
        "generator" : "Khronos glTF Blender I/O v1.2.75",
        "version" : "2.0"
    },
    "scene" : 0,
    "scenes" : [
        {
            "name" : "Scene",
            "nodes" : [
                0,
                2,
                4,
                6,
                7,
                8,
                10,
                11
            ]
        }
    ],
    "nodes" : [
        {
            "mesh" : 0,
            "name" : "Cube"
        },
        {
            "mesh" : 1,
            "name" : "Cube.002",
            "translation" : [
                -2.999999761581421,
                0,
                0
            ]
        },
        {
            "children" : [
                1
            ],
            "mesh" : 2,
            "name" : "Cube.001",
            "translation" : [
                0,
                0,
                -2
            ]
        },
        {
            "mesh" : 3,
            "name" : "Cube.004",
            "scale" : [
                0.75,
                1,
                1
            ],
            "translation" : [
                -2.25,
                0,
                0
            ]
        },
        {
            "children" : [
                3
            ],
            "mesh" : 4,
            "name" : "Cube.003",
            "translation" : [
                0,
                0,
                -7
            ]
        },
        {
            "mesh" : 5,
            "name" : "Cube.006",
            "scale" : [
                1.5,
                1,
                1
            ],
            "translation" : [
                -4.5,
                0,
                0
            ]
        },
        {
            "children" : [
                5
            ],
            "mesh" : 6,
            "name" : "Cube.005",
            "translation" : [
                0,
                0,
                3
            ]
        },
        {
            "mesh" : 7,
            "name" : "Cylinder",
            "translation" : [
                8.304668426513672,
                0,
                -11
            ]
        },
        {
            "mesh" : 8,
            "name" : "Cube.007",
            "translation" : [
                -11,
                0,
                -13
            ]
        },
        {
            "mesh" : 9,
            "name" : "Cube.008",
            "rotation" : [
                0,
                0.7071068286895752,
                0,
                0.7071067690849304
            ],
            "translation" : [
                -0.718109130859375,
                0,
                8.384568214416504
            ]
        },
        {
            "children" : [
                9
            ],
            "mesh" : 10,
            "name" : "Cube.009",
            "rotation" : [
                0,
                -0.7071067690849304,
                0,
                0.7071067690849304
            ],
            "translation" : [
                2,
                0,
                16
            ]
        },
        {
            "mesh" : 11,
            "name" : "Plane",
            "translation" : [
                11,
                0,
                1
            ]
        }
    ],
    "materials" : [
        {
            "doubleSided" : true,
            "emissiveFactor" : [
                0,
                0,
                0
            ],
            "name" : "Material",
            "pbrMetallicRoughness" : {
                "metallicFactor" : 0,
                "roughnessFactor" : 0.8954545259475708
            }
        }
    ],
    "meshes" : [
        {
            "name" : "Cube",
            "primitives" : [
                {
                    "attributes" : {
                        "POSITION" : 0,
                        "NORMAL" : 1,
                        "TEXCOORD_0" : 2
                    },
                    "indices" : 3,
                    "material" : 0
                }
            ]
        },
        {
            "name" : "Cube.002",
            "primitives" : [
                {
                    "attributes" : {
                        "POSITION" : 4,
                        "NORMAL" : 5,
                        "TEXCOORD_0" : 6
                    },
                    "indices" : 7,
                    "material" : 0
                }
            ]
        },
        {
            "name" : "Cube.001",
            "primitives" : [
                {
                    "attributes" : {
                        "POSITION" : 8,
                        "NORMAL" : 9,
                        "TEXCOORD_0" : 10
                    },
                    "indices" : 11,
                    "material" : 0
                }
            ]
        },
        {
            "name" : "Cube.004",
            "primitives" : [
                {
                    "attributes" : {
                        "POSITION" : 12,
                        "NORMAL" : 13,
                        "TEXCOORD_0" : 14
                    },
                    "indices" : 7,
                    "material" : 0
                }
            ]
        },
        {
            "name" : "Cube.003",
            "primitives" : [
                {
                    "attributes" : {
                        "POSITION" : 15,
                        "NORMAL" : 16,
                        "TEXCOORD_0" : 17
                    },
                    "indices" : 11,
                    "material" : 0
                }
            ]
        },
        {
            "name" : "Cube.006",
            "primitives" : [
                {
                    "attributes" : {
                        "POSITION" : 18,
                        "NORMAL" : 19,
                        "TEXCOORD_0" : 20
                    },
                    "indices" : 7,
                    "material" : 0
                }
            ]
        },
        {
            "name" : "Cube.005",
            "primitives" : [
                {
                    "attributes" : {
                        "POSITION" : 21,
                        "NORMAL" : 22,
                        "TEXCOORD_0" : 23
                    },
                    "indices" : 11,
                    "material" : 0
                }
            ]
        },
        {
            "name" : "Cylinder",
            "primitives" : [
                {
                    "attributes" : {
                        "POSITION" : 24,
                        "NORMAL" : 25,
                        "TEXCOORD_0" : 26
                    },
                    "indices" : 27,
                    "material" : 0
                }
            ]
        },
        {
            "name" : "Cube.007",
            "primitives" : [
                {
                    "attributes" : {
                        "POSITION" : 28,
                        "NORMAL" : 29,
                        "TEXCOORD_0" : 30
                    },
                    "indices" : 31,
                    "material" : 0
                }
            ]
        },
        {
            "name" : "Cube.008",
            "primitives" : [
                {
                    "attributes" : {
                        "POSITION" : 32,
                        "NORMAL" : 33,
                        "TEXCOORD_0" : 34
                    },
                    "indices" : 35,
                    "material" : 0
                }
            ]
        },
        {
            "name" : "Cube.009",
            "primitives" : [
                {
                    "attributes" : {
                        "POSITION" : 36,
                        "NORMAL" : 37,
                        "TEXCOORD_0" : 38
                    },
                    "indices" : 39,
                    "material" : 0
                }
            ]
        },
        {
            "name" : "Plane",
            "primitives" : [
                {
                    "attributes" : {
                        "POSITION" : 40,
                        "NORMAL" : 41,
                        "TEXCOORD_0" : 42
                    },
                    "indices" : 43,
                    "material" : 0
                }
            ]
        }
    ],
    "accessors" : [
        {
            "bufferView" : 0,
            "componentType" : 5126,
            "count" : 118,
            "max" : [
                25.663022994995117,
                7.771608352661133,
                24.587392807006836
            ],
            "min" : [
                -23.511760711669922,
                -44.99017333984375,
                -24.587392807006836
            ],
            "type" : "VEC3"
        },
        {
            "bufferView" : 1,
            "componentType" : 5126,
            "count" : 118,
            "type" : "VEC3"
        },
        {
            "bufferView" : 2,
            "componentType" : 5126,
            "count" : 118,
            "type" : "VEC2"
        },
        {
            "bufferView" : 3,
            "componentType" : 5123,
            "count" : 264,
            "type" : "SCALAR"
        },
        {
            "bufferView" : 4,
            "componentType" : 5126,
            "count" : 432,
            "max" : [
                3,
                2,
                0
            ],
            "min" : [
                -1,
                0,
                -3
            ],
            "type" : "VEC3"
        },
        {
            "bufferView" : 5,
            "componentType" : 5126,
            "count" : 432,
            "type" : "VEC3"
        },
        {
            "bufferView" : 6,
            "componentType" : 5126,
            "count" : 432,
            "type" : "VEC2"
        },
        {
            "bufferView" : 7,
            "componentType" : 5123,
            "count" : 636,
            "type" : "SCALAR"
        },
        {
            "bufferView" : 8,
            "componentType" : 5126,
            "count" : 96,
            "max" : [
                4,
                2,
                0
            ],
            "min" : [
                0,
                0,
                -3
            ],
            "type" : "VEC3"
        },
        {
            "bufferView" : 9,
            "componentType" : 5126,
            "count" : 96,
            "type" : "VEC3"
        },
        {
            "bufferView" : 10,
            "componentType" : 5126,
            "count" : 96,
            "type" : "VEC2"
        },
        {
            "bufferView" : 11,
            "componentType" : 5123,
            "count" : 132,
            "type" : "SCALAR"
        },
        {
            "bufferView" : 12,
            "componentType" : 5126,
            "count" : 432,
            "max" : [
                3,
                2,
                0
            ],
            "min" : [
                -1,
                0,
                -3
            ],
            "type" : "VEC3"
        },
        {
            "bufferView" : 13,
            "componentType" : 5126,
            "count" : 432,
            "type" : "VEC3"
        },
        {
            "bufferView" : 14,
            "componentType" : 5126,
            "count" : 432,
            "type" : "VEC2"
        },
        {
            "bufferView" : 15,
            "componentType" : 5126,
            "count" : 96,
            "max" : [
                4,
                2,
                0
            ],
            "min" : [
                0,
                0,
                -3
            ],
            "type" : "VEC3"
        },
        {
            "bufferView" : 16,
            "componentType" : 5126,
            "count" : 96,
            "type" : "VEC3"
        },
        {
            "bufferView" : 17,
            "componentType" : 5126,
            "count" : 96,
            "type" : "VEC2"
        },
        {
            "bufferView" : 18,
            "componentType" : 5126,
            "count" : 432,
            "max" : [
                3,
                2,
                0
            ],
            "min" : [
                -1,
                0,
                -3
            ],
            "type" : "VEC3"
        },
        {
            "bufferView" : 19,
            "componentType" : 5126,
            "count" : 432,
            "type" : "VEC3"
        },
        {
            "bufferView" : 20,
            "componentType" : 5126,
            "count" : 432,
            "type" : "VEC2"
        },
        {
            "bufferView" : 21,
            "componentType" : 5126,
            "count" : 96,
            "max" : [
                4,
                2,
                0
            ],
            "min" : [
                0,
                0,
                -3
            ],
            "type" : "VEC3"
        },
        {
            "bufferView" : 22,
            "componentType" : 5126,
            "count" : 96,
            "type" : "VEC3"
        },
        {
            "bufferView" : 23,
            "componentType" : 5126,
            "count" : 96,
            "type" : "VEC2"
        },
        {
            "bufferView" : 24,
            "componentType" : 5126,
            "count" : 8364,
            "max" : [
                4.612082481384277,
                7.771609783172607,
                -0.010556992143392563
            ],
            "min" : [
                -4.612049102783203,
                8.561129334339057e-07,
                -9.355260848999023
            ],
            "type" : "VEC3"
        },
        {
            "bufferView" : 25,
            "componentType" : 5126,
            "count" : 8364,
            "type" : "VEC3"
        },
        {
            "bufferView" : 26,
            "componentType" : 5126,
            "count" : 8364,
            "type" : "VEC2"
        },
        {
            "bufferView" : 27,
            "componentType" : 5123,
            "count" : 13044,
            "type" : "SCALAR"
        },
        {
            "bufferView" : 28,
            "componentType" : 5126,
            "count" : 101,
            "max" : [
                5.656815528869629,
                1.7440367937088013,
                5.656862258911133
            ],
            "min" : [
                -5.6568922996521,
                -0.800238311290741,
                -5.656845569610596
            ],
            "type" : "VEC3"
        },
        {
            "bufferView" : 29,
            "componentType" : 5126,
            "count" : 101,
            "type" : "VEC3"
        },
        {
            "bufferView" : 30,
            "componentType" : 5126,
            "count" : 101,
            "type" : "VEC2"
        },
        {
            "bufferView" : 31,
            "componentType" : 5123,
            "count" : 480,
            "type" : "SCALAR"
        },
        {
            "bufferView" : 32,
            "componentType" : 5126,
            "count" : 508,
            "max" : [
                4,
                2.5,
                5
            ],
            "min" : [
                -1.1793452614483613e-07,
                0,
                -4.870294570922852
            ],
            "type" : "VEC3"
        },
        {
            "bufferView" : 33,
            "componentType" : 5126,
            "count" : 508,
            "type" : "VEC3"
        },
        {
            "bufferView" : 34,
            "componentType" : 5126,
            "count" : 508,
            "type" : "VEC2"
        },
        {
            "bufferView" : 35,
            "componentType" : 5123,
            "count" : 852,
            "type" : "SCALAR"
        },
        {
            "bufferView" : 36,
            "componentType" : 5126,
            "count" : 96,
            "max" : [
                4,
                2.5,
                0
            ],
            "min" : [
                -5.080474376678467,
                0,
                -11.729570388793945
            ],
            "type" : "VEC3"
        },
        {
            "bufferView" : 37,
            "componentType" : 5126,
            "count" : 96,
            "type" : "VEC3"
        },
        {
            "bufferView" : 38,
            "componentType" : 5126,
            "count" : 96,
            "type" : "VEC2"
        },
        {
            "bufferView" : 39,
            "componentType" : 5123,
            "count" : 132,
            "type" : "SCALAR"
        },
        {
            "bufferView" : 40,
            "componentType" : 5126,
            "count" : 668,
            "max" : [
                6.643380165100098,
                0.8273420929908752,
                8.696005821228027
            ],
            "min" : [
                -5.184340476989746,
                0,
                -8.696005821228027
            ],
            "type" : "VEC3"
        },
        {
            "bufferView" : 41,
            "componentType" : 5126,
            "count" : 668,
            "type" : "VEC3"
        },
        {
            "bufferView" : 42,
            "componentType" : 5126,
            "count" : 668,
            "type" : "VEC2"
        },
        {
            "bufferView" : 43,
            "componentType" : 5123,
            "count" : 3792,
            "type" : "SCALAR"
        }
    ],
    "bufferViews" : [
        {
            "buffer" : 0,
            "byteLength" : 1416,
            "byteOffset" : 0
        },
        {
            "buffer" : 0,
            "byteLength" : 1416,
            "byteOffset" : 1416
        },
        {
            "buffer" : 0,
            "byteLength" : 944,
            "byteOffset" : 2832
        },
        {
            "buffer" : 0,
            "byteLength" : 528,
            "byteOffset" : 3776
        },
        {
            "buffer" : 0,
            "byteLength" : 5184,
            "byteOffset" : 4304
        },
        {
            "buffer" : 0,
            "byteLength" : 5184,
            "byteOffset" : 9488
        },
        {
            "buffer" : 0,
            "byteLength" : 3456,
            "byteOffset" : 14672
        },
        {
            "buffer" : 0,
            "byteLength" : 1272,
            "byteOffset" : 18128
        },
        {
            "buffer" : 0,
            "byteLength" : 1152,
            "byteOffset" : 19400
        },
        {
            "buffer" : 0,
            "byteLength" : 1152,
            "byteOffset" : 20552
        },
        {
            "buffer" : 0,
            "byteLength" : 768,
            "byteOffset" : 21704
        },
        {
            "buffer" : 0,
            "byteLength" : 264,
            "byteOffset" : 22472
        },
        {
            "buffer" : 0,
            "byteLength" : 5184,
            "byteOffset" : 22736
        },
        {
            "buffer" : 0,
            "byteLength" : 5184,
            "byteOffset" : 27920
        },
        {
            "buffer" : 0,
            "byteLength" : 3456,
            "byteOffset" : 33104
        },
        {
            "buffer" : 0,
            "byteLength" : 1152,
            "byteOffset" : 36560
        },
        {
            "buffer" : 0,
            "byteLength" : 1152,
            "byteOffset" : 37712
        },
        {
            "buffer" : 0,
            "byteLength" : 768,
            "byteOffset" : 38864
        },
        {
            "buffer" : 0,
            "byteLength" : 5184,
            "byteOffset" : 39632
        },
        {
            "buffer" : 0,
            "byteLength" : 5184,
            "byteOffset" : 44816
        },
        {
            "buffer" : 0,
            "byteLength" : 3456,
            "byteOffset" : 50000
        },
        {
            "buffer" : 0,
            "byteLength" : 1152,
            "byteOffset" : 53456
        },
        {
            "buffer" : 0,
            "byteLength" : 1152,
            "byteOffset" : 54608
        },
        {
            "buffer" : 0,
            "byteLength" : 768,
            "byteOffset" : 55760
        },
        {
            "buffer" : 0,
            "byteLength" : 100368,
            "byteOffset" : 56528
        },
        {
            "buffer" : 0,
            "byteLength" : 100368,
            "byteOffset" : 156896
        },
        {
            "buffer" : 0,
            "byteLength" : 66912,
            "byteOffset" : 257264
        },
        {
            "buffer" : 0,
            "byteLength" : 26088,
            "byteOffset" : 324176
        },
        {
            "buffer" : 0,
            "byteLength" : 1212,
            "byteOffset" : 350264
        },
        {
            "buffer" : 0,
            "byteLength" : 1212,
            "byteOffset" : 351476
        },
        {
            "buffer" : 0,
            "byteLength" : 808,
            "byteOffset" : 352688
        },
        {
            "buffer" : 0,
            "byteLength" : 960,
            "byteOffset" : 353496
        },
        {
            "buffer" : 0,
            "byteLength" : 6096,
            "byteOffset" : 354456
        },
        {
            "buffer" : 0,
            "byteLength" : 6096,
            "byteOffset" : 360552
        },
        {
            "buffer" : 0,
            "byteLength" : 4064,
            "byteOffset" : 366648
        },
        {
            "buffer" : 0,
            "byteLength" : 1704,
            "byteOffset" : 370712
        },
        {
            "buffer" : 0,
            "byteLength" : 1152,
            "byteOffset" : 372416
        },
        {
            "buffer" : 0,
            "byteLength" : 1152,
            "byteOffset" : 373568
        },
        {
            "buffer" : 0,
            "byteLength" : 768,
            "byteOffset" : 374720
        },
        {
            "buffer" : 0,
            "byteLength" : 264,
            "byteOffset" : 375488
        },
        {
            "buffer" : 0,
            "byteLength" : 8016,
            "byteOffset" : 375752
        },
        {
            "buffer" : 0,
            "byteLength" : 8016,
            "byteOffset" : 383768
        },
        {
            "buffer" : 0,
            "byteLength" : 5344,
            "byteOffset" : 391784
        },
        {
            "buffer" : 0,
            "byteLength" : 7584,
            "byteOffset" : 397128
        }
    ],
    "buffers" : [
        {
            "byteLength" : 404712,
            "uri" : "Developer_Map.bin"
        }
    ]
}
