{
    "asset" : {
        "generator" : "Khronos glTF Blender I/O v1.2.75",
        "version" : "2.0"
    },
    "scene" : 0,
    "scenes" : [
        {
            "name" : "Scene",
            "nodes" : [
                0,
                1,
                2,
                3,
                4,
                5,
                6,
                7,
                8,
                9,
                11
            ]
        }
    ],
    "nodes" : [
        {
            "mesh" : 0,
            "name" : "Cube.014_colonly",
            "scale" : [
                1.5,
                1,
                1
            ],
            "translation" : [
                -4.5,
                0,
                2.999999761581421
            ]
        },
        {
            "mesh" : 1,
            "name" : "Cube.015_colonly",
            "translation" : [
                -2.999999761581421,
                0,
                -2
            ]
        },
        {
            "mesh" : 2,
            "name" : "Cube.016_colonly",
            "scale" : [
                0.75,
                1,
                1
            ],
            "translation" : [
                -2.25,
                0,
                -6.999999523162842
            ]
        },
        {
            "mesh" : 3,
            "name" : "Cube.017_colonly"
        },
        {
            "mesh" : 4,
            "name" : "Cube.018_colonly",
            "translation" : [
                0,
                0,
                -2
            ]
        },
        {
            "mesh" : 5,
            "name" : "Cube.019_colonly",
            "translation" : [
                0,
                0,
                -7
            ]
        },
        {
            "mesh" : 6,
            "name" : "Cube.020_colonly",
            "translation" : [
                0,
                0,
                3
            ]
        },
        {
            "mesh" : 7,
            "name" : "Plane.005_colonly",
            "translation" : [
                11,
                0,
                1
            ]
        },
        {
            "mesh" : 8,
            "name" : "Cylinder.002_colonly",
            "translation" : [
                8.304668426513672,
                0,
                -11
            ]
        },
        {
            "mesh" : 9,
            "name" : "Cube.021_colonly",
            "translation" : [
                -11,
                0,
                -13
            ]
        },
        {
            "mesh" : 10,
            "name" : "Cube.022_colonly",
            "rotation" : [
                0,
                0.7071068286895752,
                0,
                0.7071067690849304
            ],
            "translation" : [
                -0.718109130859375,
                0,
                8.384568214416504
            ]
        },
        {
            "children" : [
                10
            ],
            "mesh" : 11,
            "name" : "Cube.023_colonly",
            "rotation" : [
                0,
                -0.7071067690849304,
                0,
                0.7071067690849304
            ],
            "translation" : [
                2,
                0,
                16
            ]
        }
    ],
    "materials" : [
        {
            "doubleSided" : true,
            "emissiveFactor" : [
                0,
                0,
                0
            ],
            "name" : "Material.002",
            "pbrMetallicRoughness" : {
                "baseColorFactor" : [
                    0.800000011920929,
                    0.800000011920929,
                    0.800000011920929,
                    1
                ],
                "metallicFactor" : 0,
                "roughnessFactor" : 0.5
            }
        }
    ],
    "meshes" : [
        {
            "name" : "Cube.014",
            "primitives" : [
                {
                    "attributes" : {
                        "POSITION" : 0,
                        "NORMAL" : 1,
                        "TEXCOORD_0" : 2
                    },
                    "indices" : 3,
                    "material" : 0
                }
            ]
        },
        {
            "name" : "Cube.015",
            "primitives" : [
                {
                    "attributes" : {
                        "POSITION" : 4,
                        "NORMAL" : 5,
                        "TEXCOORD_0" : 6
                    },
                    "indices" : 3,
                    "material" : 0
                }
            ]
        },
        {
            "name" : "Cube.016",
            "primitives" : [
                {
                    "attributes" : {
                        "POSITION" : 7,
                        "NORMAL" : 8,
                        "TEXCOORD_0" : 9
                    },
                    "indices" : 3,
                    "material" : 0
                }
            ]
        },
        {
            "name" : "Cube.017",
            "primitives" : [
                {
                    "attributes" : {
                        "POSITION" : 10,
                        "NORMAL" : 11,
                        "TEXCOORD_0" : 12
                    },
                    "indices" : 13,
                    "material" : 0
                }
            ]
        },
        {
            "name" : "Cube.018",
            "primitives" : [
                {
                    "attributes" : {
                        "POSITION" : 14,
                        "NORMAL" : 15,
                        "TEXCOORD_0" : 16
                    },
                    "indices" : 17,
                    "material" : 0
                }
            ]
        },
        {
            "name" : "Cube.019",
            "primitives" : [
                {
                    "attributes" : {
                        "POSITION" : 18,
                        "NORMAL" : 19,
                        "TEXCOORD_0" : 20
                    },
                    "indices" : 17,
                    "material" : 0
                }
            ]
        },
        {
            "name" : "Cube.020",
            "primitives" : [
                {
                    "attributes" : {
                        "POSITION" : 21,
                        "NORMAL" : 22,
                        "TEXCOORD_0" : 23
                    },
                    "indices" : 17,
                    "material" : 0
                }
            ]
        },
        {
            "name" : "Plane.005",
            "primitives" : [
                {
                    "attributes" : {
                        "POSITION" : 24,
                        "NORMAL" : 25,
                        "TEXCOORD_0" : 26
                    },
                    "indices" : 27,
                    "material" : 0
                }
            ]
        },
        {
            "name" : "Cylinder.002",
            "primitives" : [
                {
                    "attributes" : {
                        "POSITION" : 28,
                        "NORMAL" : 29,
                        "TEXCOORD_0" : 30
                    },
                    "indices" : 31,
                    "material" : 0
                }
            ]
        },
        {
            "name" : "Cube.021",
            "primitives" : [
                {
                    "attributes" : {
                        "POSITION" : 32,
                        "NORMAL" : 33,
                        "TEXCOORD_0" : 34
                    },
                    "indices" : 35,
                    "material" : 0
                }
            ]
        },
        {
            "name" : "Cube.022",
            "primitives" : [
                {
                    "attributes" : {
                        "POSITION" : 36,
                        "NORMAL" : 37,
                        "TEXCOORD_0" : 38
                    },
                    "indices" : 39,
                    "material" : 0
                }
            ]
        },
        {
            "name" : "Cube.023",
            "primitives" : [
                {
                    "attributes" : {
                        "POSITION" : 40,
                        "NORMAL" : 41,
                        "TEXCOORD_0" : 42
                    },
                    "indices" : 43,
                    "material" : 0
                }
            ]
        }
    ],
    "accessors" : [
        {
            "bufferView" : 0,
            "componentType" : 5126,
            "count" : 26,
            "max" : [
                3,
                2,
                0
            ],
            "min" : [
                -1.2801146507263184,
                0,
                -3
            ],
            "type" : "VEC3"
        },
        {
            "bufferView" : 1,
            "componentType" : 5126,
            "count" : 26,
            "type" : "VEC3"
        },
        {
            "bufferView" : 2,
            "componentType" : 5126,
            "count" : 26,
            "type" : "VEC2"
        },
        {
            "bufferView" : 3,
            "componentType" : 5123,
            "count" : 36,
            "type" : "SCALAR"
        },
        {
            "bufferView" : 4,
            "componentType" : 5126,
            "count" : 26,
            "max" : [
                3,
                2,
                0
            ],
            "min" : [
                -1.238661289215088,
                0,
                -3
            ],
            "type" : "VEC3"
        },
        {
            "bufferView" : 5,
            "componentType" : 5126,
            "count" : 26,
            "type" : "VEC3"
        },
        {
            "bufferView" : 6,
            "componentType" : 5126,
            "count" : 26,
            "type" : "VEC2"
        },
        {
            "bufferView" : 7,
            "componentType" : 5126,
            "count" : 26,
            "max" : [
                3,
                2,
                0
            ],
            "min" : [
                -1.166106939315796,
                0,
                -3
            ],
            "type" : "VEC3"
        },
        {
            "bufferView" : 8,
            "componentType" : 5126,
            "count" : 26,
            "type" : "VEC3"
        },
        {
            "bufferView" : 9,
            "componentType" : 5126,
            "count" : 26,
            "type" : "VEC2"
        },
        {
            "bufferView" : 10,
            "componentType" : 5126,
            "count" : 143,
            "max" : [
                25.663022994995117,
                7.771608352661133,
                24.587392807006836
            ],
            "min" : [
                -23.511760711669922,
                -44.99017333984375,
                -24.587392807006836
            ],
            "type" : "VEC3"
        },
        {
            "bufferView" : 11,
            "componentType" : 5126,
            "count" : 143,
            "type" : "VEC3"
        },
        {
            "bufferView" : 12,
            "componentType" : 5126,
            "count" : 143,
            "type" : "VEC2"
        },
        {
            "bufferView" : 13,
            "componentType" : 5123,
            "count" : 264,
            "type" : "SCALAR"
        },
        {
            "bufferView" : 14,
            "componentType" : 5126,
            "count" : 24,
            "max" : [
                4,
                2,
                0
            ],
            "min" : [
                0,
                0,
                -3
            ],
            "type" : "VEC3"
        },
        {
            "bufferView" : 15,
            "componentType" : 5126,
            "count" : 24,
            "type" : "VEC3"
        },
        {
            "bufferView" : 16,
            "componentType" : 5126,
            "count" : 24,
            "type" : "VEC2"
        },
        {
            "bufferView" : 17,
            "componentType" : 5123,
            "count" : 36,
            "type" : "SCALAR"
        },
        {
            "bufferView" : 18,
            "componentType" : 5126,
            "count" : 24,
            "max" : [
                4,
                2,
                0
            ],
            "min" : [
                0,
                0,
                -3
            ],
            "type" : "VEC3"
        },
        {
            "bufferView" : 19,
            "componentType" : 5126,
            "count" : 24,
            "type" : "VEC3"
        },
        {
            "bufferView" : 20,
            "componentType" : 5126,
            "count" : 24,
            "type" : "VEC2"
        },
        {
            "bufferView" : 21,
            "componentType" : 5126,
            "count" : 24,
            "max" : [
                4,
                2,
                0
            ],
            "min" : [
                0,
                0,
                -3
            ],
            "type" : "VEC3"
        },
        {
            "bufferView" : 22,
            "componentType" : 5126,
            "count" : 24,
            "type" : "VEC3"
        },
        {
            "bufferView" : 23,
            "componentType" : 5126,
            "count" : 24,
            "type" : "VEC2"
        },
        {
            "bufferView" : 24,
            "componentType" : 5126,
            "count" : 668,
            "max" : [
                6.643380165100098,
                0.8273420929908752,
                8.696005821228027
            ],
            "min" : [
                -5.184340476989746,
                0,
                -8.696005821228027
            ],
            "type" : "VEC3"
        },
        {
            "bufferView" : 25,
            "componentType" : 5126,
            "count" : 668,
            "type" : "VEC3"
        },
        {
            "bufferView" : 26,
            "componentType" : 5126,
            "count" : 668,
            "type" : "VEC2"
        },
        {
            "bufferView" : 27,
            "componentType" : 5123,
            "count" : 3792,
            "type" : "SCALAR"
        },
        {
            "bufferView" : 28,
            "componentType" : 5126,
            "count" : 149,
            "max" : [
                4.612081527709961,
                7.771608829498291,
                -7.5042585194751155e-06
            ],
            "min" : [
                -4.612048149108887,
                -9.264480240744888e-07,
                -9.35525894165039
            ],
            "type" : "VEC3"
        },
        {
            "bufferView" : 29,
            "componentType" : 5126,
            "count" : 149,
            "type" : "VEC3"
        },
        {
            "bufferView" : 30,
            "componentType" : 5126,
            "count" : 149,
            "type" : "VEC2"
        },
        {
            "bufferView" : 31,
            "componentType" : 5123,
            "count" : 204,
            "type" : "SCALAR"
        },
        {
            "bufferView" : 32,
            "componentType" : 5126,
            "count" : 101,
            "max" : [
                5.656815528869629,
                1.7440367937088013,
                5.656862258911133
            ],
            "min" : [
                -5.6568922996521,
                -0.800238311290741,
                -5.656845569610596
            ],
            "type" : "VEC3"
        },
        {
            "bufferView" : 33,
            "componentType" : 5126,
            "count" : 101,
            "type" : "VEC3"
        },
        {
            "bufferView" : 34,
            "componentType" : 5126,
            "count" : 101,
            "type" : "VEC2"
        },
        {
            "bufferView" : 35,
            "componentType" : 5123,
            "count" : 480,
            "type" : "SCALAR"
        },
        {
            "bufferView" : 36,
            "componentType" : 5126,
            "count" : 128,
            "max" : [
                4,
                2.5,
                5
            ],
            "min" : [
                -1.1920928955078125e-07,
                0,
                -4.870294570922852
            ],
            "type" : "VEC3"
        },
        {
            "bufferView" : 37,
            "componentType" : 5126,
            "count" : 128,
            "type" : "VEC3"
        },
        {
            "bufferView" : 38,
            "componentType" : 5126,
            "count" : 128,
            "type" : "VEC2"
        },
        {
            "bufferView" : 39,
            "componentType" : 5123,
            "count" : 216,
            "type" : "SCALAR"
        },
        {
            "bufferView" : 40,
            "componentType" : 5126,
            "count" : 28,
            "max" : [
                4,
                2.5,
                0
            ],
            "min" : [
                -5.080474376678467,
                0,
                -11.729570388793945
            ],
            "type" : "VEC3"
        },
        {
            "bufferView" : 41,
            "componentType" : 5126,
            "count" : 28,
            "type" : "VEC3"
        },
        {
            "bufferView" : 42,
            "componentType" : 5126,
            "count" : 28,
            "type" : "VEC2"
        },
        {
            "bufferView" : 43,
            "componentType" : 5123,
            "count" : 36,
            "type" : "SCALAR"
        }
    ],
    "bufferViews" : [
        {
            "buffer" : 0,
            "byteLength" : 312,
            "byteOffset" : 0
        },
        {
            "buffer" : 0,
            "byteLength" : 312,
            "byteOffset" : 312
        },
        {
            "buffer" : 0,
            "byteLength" : 208,
            "byteOffset" : 624
        },
        {
            "buffer" : 0,
            "byteLength" : 72,
            "byteOffset" : 832
        },
        {
            "buffer" : 0,
            "byteLength" : 312,
            "byteOffset" : 904
        },
        {
            "buffer" : 0,
            "byteLength" : 312,
            "byteOffset" : 1216
        },
        {
            "buffer" : 0,
            "byteLength" : 208,
            "byteOffset" : 1528
        },
        {
            "buffer" : 0,
            "byteLength" : 312,
            "byteOffset" : 1736
        },
        {
            "buffer" : 0,
            "byteLength" : 312,
            "byteOffset" : 2048
        },
        {
            "buffer" : 0,
            "byteLength" : 208,
            "byteOffset" : 2360
        },
        {
            "buffer" : 0,
            "byteLength" : 1716,
            "byteOffset" : 2568
        },
        {
            "buffer" : 0,
            "byteLength" : 1716,
            "byteOffset" : 4284
        },
        {
            "buffer" : 0,
            "byteLength" : 1144,
            "byteOffset" : 6000
        },
        {
            "buffer" : 0,
            "byteLength" : 528,
            "byteOffset" : 7144
        },
        {
            "buffer" : 0,
            "byteLength" : 288,
            "byteOffset" : 7672
        },
        {
            "buffer" : 0,
            "byteLength" : 288,
            "byteOffset" : 7960
        },
        {
            "buffer" : 0,
            "byteLength" : 192,
            "byteOffset" : 8248
        },
        {
            "buffer" : 0,
            "byteLength" : 72,
            "byteOffset" : 8440
        },
        {
            "buffer" : 0,
            "byteLength" : 288,
            "byteOffset" : 8512
        },
        {
            "buffer" : 0,
            "byteLength" : 288,
            "byteOffset" : 8800
        },
        {
            "buffer" : 0,
            "byteLength" : 192,
            "byteOffset" : 9088
        },
        {
            "buffer" : 0,
            "byteLength" : 288,
            "byteOffset" : 9280
        },
        {
            "buffer" : 0,
            "byteLength" : 288,
            "byteOffset" : 9568
        },
        {
            "buffer" : 0,
            "byteLength" : 192,
            "byteOffset" : 9856
        },
        {
            "buffer" : 0,
            "byteLength" : 8016,
            "byteOffset" : 10048
        },
        {
            "buffer" : 0,
            "byteLength" : 8016,
            "byteOffset" : 18064
        },
        {
            "buffer" : 0,
            "byteLength" : 5344,
            "byteOffset" : 26080
        },
        {
            "buffer" : 0,
            "byteLength" : 7584,
            "byteOffset" : 31424
        },
        {
            "buffer" : 0,
            "byteLength" : 1788,
            "byteOffset" : 39008
        },
        {
            "buffer" : 0,
            "byteLength" : 1788,
            "byteOffset" : 40796
        },
        {
            "buffer" : 0,
            "byteLength" : 1192,
            "byteOffset" : 42584
        },
        {
            "buffer" : 0,
            "byteLength" : 408,
            "byteOffset" : 43776
        },
        {
            "buffer" : 0,
            "byteLength" : 1212,
            "byteOffset" : 44184
        },
        {
            "buffer" : 0,
            "byteLength" : 1212,
            "byteOffset" : 45396
        },
        {
            "buffer" : 0,
            "byteLength" : 808,
            "byteOffset" : 46608
        },
        {
            "buffer" : 0,
            "byteLength" : 960,
            "byteOffset" : 47416
        },
        {
            "buffer" : 0,
            "byteLength" : 1536,
            "byteOffset" : 48376
        },
        {
            "buffer" : 0,
            "byteLength" : 1536,
            "byteOffset" : 49912
        },
        {
            "buffer" : 0,
            "byteLength" : 1024,
            "byteOffset" : 51448
        },
        {
            "buffer" : 0,
            "byteLength" : 432,
            "byteOffset" : 52472
        },
        {
            "buffer" : 0,
            "byteLength" : 336,
            "byteOffset" : 52904
        },
        {
            "buffer" : 0,
            "byteLength" : 336,
            "byteOffset" : 53240
        },
        {
            "buffer" : 0,
            "byteLength" : 224,
            "byteOffset" : 53576
        },
        {
            "buffer" : 0,
            "byteLength" : 72,
            "byteOffset" : 53800
        }
    ],
    "buffers" : [
        {
            "byteLength" : 53872,
            "uri" : "data:application/octet-stream;base64,"
        }
    ]
}
