<svg xmlns="http://www.w3.org/2000/svg" viewBox="0 0 522 522.01"><defs><style>.cls-1{fill:#fff;}.cls-2,.cls-3,.cls-4,.cls-5{fill:none;stroke-miterlimit:10;}.cls-2,.cls-3{stroke:#000;}.cls-2{stroke-width:23px;}.cls-3,.cls-4{stroke-width:15px;}.cls-4,.cls-5{stroke:#fff;}</style></defs><title>trokara tortoise</title><g id="Layer_1" data-name="Layer 1"><rect width="522" height="522"/><rect class="cls-1" x="25.33" y="25.43" width="470.89" height="470.89"/><path d="M1194.72,304.93V774.82H724.83V304.93h469.89m1-1H723.83V775.82h471.89V303.93Z" transform="translate(-699 -279)"/><path class="cls-2" d="M776.5,620.4a292.39,292.39,0,0,0-5,37.33c-4.86,71,17.14,132.93,24,131.77,5.75-1-6.88-45,12-95.53,12.68-33.91,34.5-57.17,53-72.47" transform="translate(-699 -279)"/></g><g id="Layer_2" data-name="Layer 2"><path class="cls-2" d="M1051.5,505.5c14.66-7.13,42-17.64,75-13,44.69,6.29,82.84,38.07,79,48-3,7.79-30.44-1.42-74-1-48.75.47-89.41,12.74-119,25" transform="translate(-699 -279)"/><path class="cls-3" d="M910,548.5,888.09,517l4.41,6.5c.62-.44,6.63-4.88,6.5-12-.16-8.69-9.3-13.95-14-14a15,15,0,0,0-4.16.63,13.07,13.07,0,0,0-4.34,2.37l4.63,6.5L862,479.5" transform="translate(-699 -279)"/><path d="M711.5,617.5c1.26-7.77,43.28,5.23,107-9,27.49-6.14,125.7-28.07,176-105,13.73-21,33.9-61.41,73.53-100.93a93.68,93.68,0,0,1,28.07-19.79c33.29-15,79.59-11,85.26,7,4.72,15-17.87,36.52-26,44.24-24.33,23.13-51.62,28.65-65.5,30.27-6.8,23.47-29.35,90.78-91.49,139.71a226.21,226.21,0,0,1-44,27.24c-8.82,4.14-39.67,18-83.89,21.66C789.83,659.51,709.75,628.3,711.5,617.5Z" transform="translate(-699 -279)"/><path class="cls-2" d="M782.5,585.5c1.69-9.73,14.34-75.94,78-114,59.82-35.76,119.85-19.87,130-17a200,200,0,0,1-35,53c-36,39-78.82,53.47-107,63A331.14,331.14,0,0,1,782.5,585.5Z" transform="translate(-699 -279)"/><path class="cls-4" d="M885,525.5" transform="translate(-699 -279)"/><path class="cls-5" d="M911,328.66" transform="translate(-699 -279)"/><circle class="cls-1" cx="444" cy="113" r="6"/></g></svg>